<mxfile host="65bd71144e">
    <diagram id="A3T4wvwp4rkivmuEQ-wM" name="Page-1">
        <mxGraphModel dx="855" dy="1014" grid="1" gridSize="10" guides="1" tooltips="1" connect="1" arrows="1" fold="1" page="1" pageScale="1" pageWidth="850" pageHeight="1100" math="0" shadow="0">
            <root>
                <mxCell id="0"/>
                <mxCell id="1" parent="0"/>
                <mxCell id="18" style="edgeStyle=none;html=1;exitX=1;exitY=0.5;exitDx=0;exitDy=0;entryX=0;entryY=0.75;entryDx=0;entryDy=0;endArrow=open;endFill=0;endSize=19;" edge="1" parent="1" source="5" target="6">
                    <mxGeometry relative="1" as="geometry"/>
                </mxCell>
                <mxCell id="5" value="Browser" style="rounded=1;whiteSpace=wrap;html=1;fontSize=21;fillColor=#6a00ff;strokeColor=#3700CC;fontColor=#ffffff;" vertex="1" parent="1">
                    <mxGeometry y="180" width="120" height="60" as="geometry"/>
                </mxCell>
                <mxCell id="6" value="" style="rounded=1;whiteSpace=wrap;html=1;arcSize=4;" vertex="1" parent="1">
                    <mxGeometry x="165" y="60" width="390" height="200" as="geometry"/>
                </mxCell>
                <mxCell id="7" value="Model" style="rounded=1;whiteSpace=wrap;html=1;arcSize=4;fontSize=21;fillColor=#60a917;strokeColor=#2D7600;fontColor=#ffffff;" vertex="1" parent="1">
                    <mxGeometry x="300" y="160" width="120" height="70" as="geometry"/>
                </mxCell>
                <mxCell id="8" style="edgeStyle=orthogonalEdgeStyle;html=1;exitX=0.5;exitY=1;exitDx=0;exitDy=0;entryX=0;entryY=0.5;entryDx=0;entryDy=0;endArrow=open;endFill=0;endSize=19;" edge="1" parent="1" source="9" target="7">
                    <mxGeometry relative="1" as="geometry"/>
                </mxCell>
                <mxCell id="13" style="edgeStyle=none;html=1;exitX=1;exitY=0.5;exitDx=0;exitDy=0;entryX=0;entryY=0.5;entryDx=0;entryDy=0;endSize=19;endArrow=open;endFill=0;" edge="1" parent="1" source="9" target="11">
                    <mxGeometry relative="1" as="geometry"/>
                </mxCell>
                <mxCell id="9" value="Controller" style="rounded=1;whiteSpace=wrap;html=1;arcSize=4;fontSize=21;fillColor=#a20025;strokeColor=#6F0000;fontColor=#ffffff;" vertex="1" parent="1">
                    <mxGeometry x="175" y="80" width="120" height="50" as="geometry"/>
                </mxCell>
                <mxCell id="10" style="edgeStyle=orthogonalEdgeStyle;html=1;exitX=0.5;exitY=1;exitDx=0;exitDy=0;entryX=1;entryY=0.5;entryDx=0;entryDy=0;endArrow=open;endFill=0;endSize=19;" edge="1" parent="1" source="11" target="7">
                    <mxGeometry relative="1" as="geometry"/>
                </mxCell>
                <mxCell id="11" value="View" style="rounded=1;whiteSpace=wrap;html=1;arcSize=4;fontSize=21;fillColor=#1ba1e2;strokeColor=#006EAF;fontColor=#ffffff;" vertex="1" parent="1">
                    <mxGeometry x="420" y="80" width="120" height="50" as="geometry"/>
                </mxCell>
                <mxCell id="12" value="Web Application" style="text;html=1;strokeColor=none;fillColor=none;align=center;verticalAlign=middle;whiteSpace=wrap;rounded=0;fontSize=21;" vertex="1" parent="1">
                    <mxGeometry x="217.5" y="30" width="285" height="20" as="geometry"/>
                </mxCell>
                <mxCell id="15" style="edgeStyle=none;html=1;exitX=0.5;exitY=0;exitDx=0;exitDy=0;entryX=0.5;entryY=1;entryDx=0;entryDy=0;endArrow=open;endFill=0;endSize=19;" edge="1" parent="1" source="14" target="7">
                    <mxGeometry relative="1" as="geometry"/>
                </mxCell>
                <mxCell id="14" value="Unit Tests" style="rounded=1;whiteSpace=wrap;html=1;fontSize=21;fillColor=#0050ef;strokeColor=#001DBC;fontColor=#ffffff;" vertex="1" parent="1">
                    <mxGeometry x="300" y="270" width="120" height="60" as="geometry"/>
                </mxCell>
                <mxCell id="20" style="edgeStyle=none;html=1;exitX=0.5;exitY=1;exitDx=0;exitDy=0;entryX=0.5;entryY=0;entryDx=0;entryDy=0;endArrow=open;endFill=0;endSize=19;" edge="1" parent="1" source="16" target="17">
                    <mxGeometry relative="1" as="geometry"/>
                </mxCell>
                <mxCell id="16" value="System&lt;br style=&quot;font-size: 21px;&quot;&gt;Test" style="rounded=1;whiteSpace=wrap;html=1;fontSize=21;fillColor=#0050ef;strokeColor=#001DBC;fontColor=#ffffff;" vertex="1" parent="1">
                    <mxGeometry width="120" height="60" as="geometry"/>
                </mxCell>
                <mxCell id="19" style="edgeStyle=none;html=1;exitX=0.5;exitY=1;exitDx=0;exitDy=0;entryX=0.5;entryY=0;entryDx=0;entryDy=0;endArrow=open;endFill=0;endSize=19;" edge="1" parent="1" source="17" target="5">
                    <mxGeometry relative="1" as="geometry"/>
                </mxCell>
                <mxCell id="17" value="Driver" style="rounded=1;whiteSpace=wrap;html=1;fontSize=21;fillColor=#6a00ff;strokeColor=#3700CC;fontColor=#ffffff;" vertex="1" parent="1">
                    <mxGeometry y="90" width="120" height="60" as="geometry"/>
                </mxCell>
            </root>
        </mxGraphModel>
    </diagram>
</mxfile>